<mxfile host="app.diagrams.net" modified="2024-01-09T21:23:19.775Z" agent="Mozilla/5.0 (Windows NT 10.0; Win64; x64) AppleWebKit/537.36 (KHTML, like Gecko) Chrome/120.0.0.0 Safari/537.36" etag="a9AyKEPGuiOOy7kyGm13" version="22.1.17" type="github">
  <diagram name="Page-1" id="B3mlhVvV09Qu5MrSqNEG">
    <mxGraphModel dx="1434" dy="780" grid="1" gridSize="10" guides="1" tooltips="1" connect="1" arrows="1" fold="1" page="1" pageScale="1" pageWidth="850" pageHeight="1100" math="0" shadow="0">
      <root>
        <mxCell id="0" />
        <mxCell id="1" parent="0" />
        <mxCell id="V8RE8BcvdDwi5T4sLW9s-6" value="" style="edgeStyle=orthogonalEdgeStyle;rounded=0;orthogonalLoop=1;jettySize=auto;html=1;" edge="1" parent="1" source="V8RE8BcvdDwi5T4sLW9s-1" target="V8RE8BcvdDwi5T4sLW9s-5">
          <mxGeometry relative="1" as="geometry" />
        </mxCell>
        <mxCell id="V8RE8BcvdDwi5T4sLW9s-1" value="Receive Data&lt;br&gt;MFT / ACMF Email" style="rounded=1;whiteSpace=wrap;html=1;" vertex="1" parent="1">
          <mxGeometry x="30" y="350" width="110" height="60" as="geometry" />
        </mxCell>
        <mxCell id="V8RE8BcvdDwi5T4sLW9s-8" style="edgeStyle=orthogonalEdgeStyle;rounded=0;orthogonalLoop=1;jettySize=auto;html=1;exitX=0.5;exitY=0;exitDx=0;exitDy=0;entryX=0;entryY=0.5;entryDx=0;entryDy=0;entryPerimeter=0;" edge="1" parent="1" source="V8RE8BcvdDwi5T4sLW9s-5" target="V8RE8BcvdDwi5T4sLW9s-7">
          <mxGeometry relative="1" as="geometry" />
        </mxCell>
        <mxCell id="V8RE8BcvdDwi5T4sLW9s-11" value="" style="edgeStyle=orthogonalEdgeStyle;rounded=0;orthogonalLoop=1;jettySize=auto;html=1;" edge="1" parent="1" source="V8RE8BcvdDwi5T4sLW9s-5" target="V8RE8BcvdDwi5T4sLW9s-10">
          <mxGeometry relative="1" as="geometry" />
        </mxCell>
        <mxCell id="V8RE8BcvdDwi5T4sLW9s-5" value="Function App:&lt;br&gt;appemailreceiver" style="whiteSpace=wrap;html=1;rounded=1;" vertex="1" parent="1">
          <mxGeometry x="215" y="350" width="120" height="60" as="geometry" />
        </mxCell>
        <mxCell id="V8RE8BcvdDwi5T4sLW9s-12" style="edgeStyle=orthogonalEdgeStyle;rounded=0;orthogonalLoop=1;jettySize=auto;html=1;exitX=0.5;exitY=1;exitDx=0;exitDy=0;exitPerimeter=0;entryX=0.5;entryY=0;entryDx=0;entryDy=0;" edge="1" parent="1" source="V8RE8BcvdDwi5T4sLW9s-7" target="V8RE8BcvdDwi5T4sLW9s-10">
          <mxGeometry relative="1" as="geometry" />
        </mxCell>
        <mxCell id="V8RE8BcvdDwi5T4sLW9s-7" value="SQL&lt;br&gt;UtasIaoNewfile:&lt;br&gt;IncomingEmail&lt;br&gt;FileLog" style="shape=cylinder3;whiteSpace=wrap;html=1;boundedLbl=1;backgroundOutline=1;size=15;" vertex="1" parent="1">
          <mxGeometry x="400" y="190" width="120" height="90" as="geometry" />
        </mxCell>
        <mxCell id="V8RE8BcvdDwi5T4sLW9s-15" style="edgeStyle=orthogonalEdgeStyle;rounded=0;orthogonalLoop=1;jettySize=auto;html=1;entryX=0;entryY=0.5;entryDx=0;entryDy=0;" edge="1" parent="1" source="V8RE8BcvdDwi5T4sLW9s-10" target="V8RE8BcvdDwi5T4sLW9s-14">
          <mxGeometry relative="1" as="geometry" />
        </mxCell>
        <mxCell id="V8RE8BcvdDwi5T4sLW9s-10" value="FunctionApp:&lt;br&gt;MessageProcessing" style="whiteSpace=wrap;html=1;rounded=1;" vertex="1" parent="1">
          <mxGeometry x="400" y="350" width="120" height="60" as="geometry" />
        </mxCell>
        <mxCell id="V8RE8BcvdDwi5T4sLW9s-29" value="" style="edgeStyle=orthogonalEdgeStyle;rounded=0;orthogonalLoop=1;jettySize=auto;html=1;" edge="1" parent="1" source="V8RE8BcvdDwi5T4sLW9s-13" target="V8RE8BcvdDwi5T4sLW9s-28">
          <mxGeometry relative="1" as="geometry" />
        </mxCell>
        <mxCell id="V8RE8BcvdDwi5T4sLW9s-13" value="Blob:&lt;br&gt;IaoOrionCoreData &lt;br&gt;(Raw)" style="shape=dataStorage;whiteSpace=wrap;html=1;fixedSize=1;" vertex="1" parent="1">
          <mxGeometry x="382.5" y="470" width="155" height="80" as="geometry" />
        </mxCell>
        <mxCell id="V8RE8BcvdDwi5T4sLW9s-17" style="edgeStyle=orthogonalEdgeStyle;rounded=0;orthogonalLoop=1;jettySize=auto;html=1;entryX=1;entryY=0.5;entryDx=0;entryDy=0;exitX=0.5;exitY=1;exitDx=0;exitDy=0;" edge="1" parent="1" source="V8RE8BcvdDwi5T4sLW9s-14" target="V8RE8BcvdDwi5T4sLW9s-13">
          <mxGeometry relative="1" as="geometry" />
        </mxCell>
        <mxCell id="V8RE8BcvdDwi5T4sLW9s-19" value="" style="edgeStyle=orthogonalEdgeStyle;rounded=0;orthogonalLoop=1;jettySize=auto;html=1;entryX=0;entryY=0.5;entryDx=0;entryDy=0;entryPerimeter=0;" edge="1" parent="1" source="V8RE8BcvdDwi5T4sLW9s-14" target="V8RE8BcvdDwi5T4sLW9s-20">
          <mxGeometry relative="1" as="geometry">
            <mxPoint x="875" y="380" as="targetPoint" />
          </mxGeometry>
        </mxCell>
        <mxCell id="V8RE8BcvdDwi5T4sLW9s-22" style="edgeStyle=orthogonalEdgeStyle;rounded=0;orthogonalLoop=1;jettySize=auto;html=1;entryX=0;entryY=0.5;entryDx=0;entryDy=0;" edge="1" parent="1" source="V8RE8BcvdDwi5T4sLW9s-14" target="V8RE8BcvdDwi5T4sLW9s-21">
          <mxGeometry relative="1" as="geometry" />
        </mxCell>
        <mxCell id="V8RE8BcvdDwi5T4sLW9s-14" value="FunctionApp&lt;br&gt;AscentiaCleanParse:&lt;br&gt;QueueAcmfReportParse" style="whiteSpace=wrap;html=1;rounded=1;" vertex="1" parent="1">
          <mxGeometry x="600" y="350" width="170" height="60" as="geometry" />
        </mxCell>
        <mxCell id="V8RE8BcvdDwi5T4sLW9s-27" value="Report Parse Keys" style="edgeStyle=orthogonalEdgeStyle;rounded=0;orthogonalLoop=1;jettySize=auto;html=1;entryX=0.5;entryY=0;entryDx=0;entryDy=0;exitX=0.5;exitY=0;exitDx=0;exitDy=0;exitPerimeter=0;" edge="1" parent="1" source="V8RE8BcvdDwi5T4sLW9s-20" target="V8RE8BcvdDwi5T4sLW9s-14">
          <mxGeometry relative="1" as="geometry" />
        </mxCell>
        <mxCell id="V8RE8BcvdDwi5T4sLW9s-20" value="SQL&lt;br&gt;Ascentia:&lt;br&gt;AcmfReport&lt;br&gt;ApuSerialNumberHistory" style="shape=cylinder3;whiteSpace=wrap;html=1;boundedLbl=1;backgroundOutline=1;size=15;" vertex="1" parent="1">
          <mxGeometry x="880" y="330" width="180" height="100" as="geometry" />
        </mxCell>
        <mxCell id="V8RE8BcvdDwi5T4sLW9s-21" value="Blob:&lt;br&gt;ParsedReport&lt;br&gt;DsCSV&lt;br&gt;DtCSV" style="shape=dataStorage;whiteSpace=wrap;html=1;fixedSize=1;" vertex="1" parent="1">
          <mxGeometry x="880" y="480" width="150" height="80" as="geometry" />
        </mxCell>
        <mxCell id="V8RE8BcvdDwi5T4sLW9s-23" value="Cosmos (CleanParse):&lt;br&gt;AcmfReportData" style="strokeWidth=2;html=1;shape=mxgraph.flowchart.multi-document;whiteSpace=wrap;" vertex="1" parent="1">
          <mxGeometry x="880" y="600" width="210" height="90" as="geometry" />
        </mxCell>
        <mxCell id="V8RE8BcvdDwi5T4sLW9s-24" style="edgeStyle=orthogonalEdgeStyle;rounded=0;orthogonalLoop=1;jettySize=auto;html=1;entryX=0;entryY=0.5;entryDx=0;entryDy=0;entryPerimeter=0;" edge="1" parent="1" source="V8RE8BcvdDwi5T4sLW9s-14" target="V8RE8BcvdDwi5T4sLW9s-23">
          <mxGeometry relative="1" as="geometry" />
        </mxCell>
        <mxCell id="V8RE8BcvdDwi5T4sLW9s-25" value="QueueMessages:&lt;br&gt;DemoParse&lt;br&gt;AlertNotification&lt;br&gt;ReportNotification" style="shape=tape;whiteSpace=wrap;html=1;strokeWidth=2;size=0.19" vertex="1" parent="1">
          <mxGeometry x="880" y="710" width="200" height="120" as="geometry" />
        </mxCell>
        <mxCell id="V8RE8BcvdDwi5T4sLW9s-26" style="edgeStyle=orthogonalEdgeStyle;rounded=0;orthogonalLoop=1;jettySize=auto;html=1;entryX=0;entryY=0.5;entryDx=0;entryDy=0;entryPerimeter=0;" edge="1" parent="1" source="V8RE8BcvdDwi5T4sLW9s-14" target="V8RE8BcvdDwi5T4sLW9s-25">
          <mxGeometry relative="1" as="geometry" />
        </mxCell>
        <mxCell id="V8RE8BcvdDwi5T4sLW9s-33" style="edgeStyle=orthogonalEdgeStyle;rounded=0;orthogonalLoop=1;jettySize=auto;html=1;entryX=0;entryY=0.5;entryDx=0;entryDy=0;" edge="1" parent="1" source="V8RE8BcvdDwi5T4sLW9s-28" target="V8RE8BcvdDwi5T4sLW9s-32">
          <mxGeometry relative="1" as="geometry" />
        </mxCell>
        <mxCell id="V8RE8BcvdDwi5T4sLW9s-35" style="edgeStyle=orthogonalEdgeStyle;rounded=0;orthogonalLoop=1;jettySize=auto;html=1;entryX=0.5;entryY=0;entryDx=0;entryDy=0;" edge="1" parent="1" source="V8RE8BcvdDwi5T4sLW9s-28" target="V8RE8BcvdDwi5T4sLW9s-34">
          <mxGeometry relative="1" as="geometry" />
        </mxCell>
        <mxCell id="V8RE8BcvdDwi5T4sLW9s-28" value="Databricks (Orion):&lt;br&gt;Raw -&amp;gt; Refined" style="rounded=1;whiteSpace=wrap;html=1;" vertex="1" parent="1">
          <mxGeometry x="400" y="590" width="120" height="60" as="geometry" />
        </mxCell>
        <mxCell id="V8RE8BcvdDwi5T4sLW9s-31" style="edgeStyle=orthogonalEdgeStyle;rounded=0;orthogonalLoop=1;jettySize=auto;html=1;" edge="1" parent="1" source="V8RE8BcvdDwi5T4sLW9s-30" target="V8RE8BcvdDwi5T4sLW9s-28">
          <mxGeometry relative="1" as="geometry" />
        </mxCell>
        <mxCell id="V8RE8BcvdDwi5T4sLW9s-36" style="edgeStyle=orthogonalEdgeStyle;rounded=0;orthogonalLoop=1;jettySize=auto;html=1;entryX=0;entryY=0.5;entryDx=0;entryDy=0;" edge="1" parent="1" source="V8RE8BcvdDwi5T4sLW9s-30" target="V8RE8BcvdDwi5T4sLW9s-34">
          <mxGeometry relative="1" as="geometry">
            <Array as="points">
              <mxPoint x="370" y="620" />
              <mxPoint x="370" y="740" />
            </Array>
          </mxGeometry>
        </mxCell>
        <mxCell id="V8RE8BcvdDwi5T4sLW9s-30" value="DataFactory:&lt;br&gt;Pipeline Trigger" style="rounded=1;whiteSpace=wrap;html=1;" vertex="1" parent="1">
          <mxGeometry x="215" y="590" width="120" height="60" as="geometry" />
        </mxCell>
        <mxCell id="V8RE8BcvdDwi5T4sLW9s-32" value="Blob:&lt;br&gt;IaoOrionCoreData &lt;br&gt;(Refined)" style="shape=dataStorage;whiteSpace=wrap;html=1;fixedSize=1;" vertex="1" parent="1">
          <mxGeometry x="570" y="580" width="150" height="80" as="geometry" />
        </mxCell>
        <mxCell id="V8RE8BcvdDwi5T4sLW9s-37" style="edgeStyle=orthogonalEdgeStyle;rounded=0;orthogonalLoop=1;jettySize=auto;html=1;entryX=0;entryY=0.5;entryDx=0;entryDy=0;entryPerimeter=0;" edge="1" parent="1" source="V8RE8BcvdDwi5T4sLW9s-34" target="V8RE8BcvdDwi5T4sLW9s-38">
          <mxGeometry relative="1" as="geometry">
            <mxPoint x="630" y="740" as="targetPoint" />
          </mxGeometry>
        </mxCell>
        <mxCell id="V8RE8BcvdDwi5T4sLW9s-34" value="Databricks (IaoBrick):&lt;br&gt;Analytic Results Driver" style="rounded=1;whiteSpace=wrap;html=1;" vertex="1" parent="1">
          <mxGeometry x="590" y="710" width="130" height="60" as="geometry" />
        </mxCell>
        <mxCell id="V8RE8BcvdDwi5T4sLW9s-38" value="Cosmos (PHM):&lt;br&gt;Analytic Results&lt;br&gt;Analytic Metadata" style="strokeWidth=2;html=1;shape=mxgraph.flowchart.multi-document;whiteSpace=wrap;align=center;" vertex="1" parent="1">
          <mxGeometry x="880" y="870" width="210" height="90" as="geometry" />
        </mxCell>
      </root>
    </mxGraphModel>
  </diagram>
</mxfile>
